<?xml version="1.0" standalone="no"?>
<!DOCTYPE svg PUBLIC "-//W3C//DTD SVG 20010904//EN"
 "http://www.w3.org/TR/2001/REC-SVG-20010904/DTD/svg10.dtd">
<svg version="1.0" xmlns="http://www.w3.org/2000/svg"
 width="260.000000pt" height="260.000000pt" viewBox="0 0 260.000000 260.000000"
 preserveAspectRatio="xMidYMid meet">
<metadata>
Created by potrace 1.11, written by Peter Selinger 2001-2013
</metadata>
<g transform="translate(0.000000,260.000000) scale(0.100000,-0.100000)"
fill="#000000" stroke="none">
<path d="M1244 2559 c-162 -12 -267 -31 -372 -70 -111 -40 -160 -76 -181 -130
-7 -20 -19 -28 -48 -32 -106 -18 -276 -136 -356 -249 -45 -64 -78 -145 -75
-185 2 -19 8 -16 56 28 29 27 57 49 62 49 4 0 -5 -38 -21 -85 -16 -46 -31 -97
-34 -112 -11 -55 -17 -193 -10 -238 l6 -46 39 35 c38 34 79 61 85 54 1 -2 5
-24 8 -50 3 -26 13 -61 22 -78 l17 -32 29 33 c34 39 34 48 -5 -121 -26 -115
-37 -166 -38 -177 0 -5 -4 -18 -9 -30 -8 -21 -6 -21 18 -12 14 5 27 8 28 7 2
-2 -4 -41 -11 -88 -8 -47 -16 -105 -20 -130 -3 -25 -7 -56 -10 -70 -2 -14 -7
-59 -10 -100 l-7 -75 27 24 c26 24 26 24 26 3 0 -23 66 -207 94 -260 15 -30
46 -44 46 -22 0 6 6 10 13 10 7 0 21 -26 31 -58 10 -31 26 -75 35 -97 10 -22
26 -60 36 -85 34 -81 43 -90 71 -75 22 11 34 9 102 -21 55 -24 100 -36 153
-40 115 -9 359 -11 404 -3 22 4 60 10 85 14 25 3 69 17 99 31 30 13 55 23 56
22 1 -2 7 -11 12 -22 9 -15 15 -8 48 55 46 87 101 200 118 237 l11 27 4 -28
c3 -26 8 -21 62 60 62 94 120 202 120 223 0 10 3 10 15 0 31 -26 34 -6 36 265
0 116 -4 247 -10 293 -13 89 -10 108 24 162 49 78 75 132 106 221 29 82 34
108 36 204 2 131 -22 224 -85 321 -46 70 -134 167 -191 209 -22 17 -41 33 -41
36 0 4 17 10 38 14 39 7 241 82 255 95 5 4 -11 4 -35 0 -44 -9 -373 -6 -418 3
-14 3 -47 8 -73 12 -26 4 -74 18 -107 31 -93 38 -222 53 -366 43z m-251 -787
c46 -95 112 -154 257 -227 83 -42 232 -107 235 -103 1 2 12 23 24 48 27 53 98
123 154 151 l39 20 46 -23 c40 -19 59 -41 125 -138 42 -63 100 -138 128 -167
l51 -52 -6 -88 c-14 -191 -41 -337 -74 -400 -16 -33 -31 -42 -33 -23 -1 6 -3
15 -4 20 -1 6 -3 20 -4 33 -1 14 -11 0 -28 -43 -51 -124 -125 -240 -154 -240
-5 0 -19 17 -32 38 -37 60 -56 105 -85 207 -6 23 -18 33 -47 43 -115 38 -508
34 -629 -6 -50 -17 -50 -17 -62 -75 -6 -33 -18 -71 -25 -85 -26 -53 -70 -112
-83 -112 -38 0 -139 132 -158 209 l-11 44 -14 -27 c-13 -24 -25 -35 -21 -18 1
4 -2 36 -6 72 -13 98 -15 120 -21 185 -3 33 -8 71 -10 85 -10 56 -21 330 -16
402 1 12 60 58 75 58 2 0 6 -19 10 -42 4 -22 9 -45 12 -50 3 -5 27 27 53 70
56 93 76 120 139 186 41 43 126 106 141 106 4 0 18 -26 34 -58z m418 -1127
c63 -11 132 -35 151 -52 17 -15 19 -31 17 -135 -1 -135 0 -133 -88 -99 -65 24
-114 63 -148 117 l-28 43 -17 -32 -17 -32 -13 33 c-15 40 -22 40 -38 2 -14
-34 -25 -38 -39 -12 -9 16 -10 16 -17 -3 -9 -24 -49 -65 -84 -86 -25 -15 -116
-49 -132 -49 -4 0 -8 53 -8 118 0 135 2 140 80 167 79 28 275 38 381 20z"/>
</g>
</svg>
